<?xml version="1.0" encoding="UTF-8"?>
<svg xmlns="http://www.w3.org/2000/svg" xmlns:xlink="http://www.w3.org/1999/xlink" width="64pt" height="64pt" viewBox="0 0 64 64" version="1.1">
<g id="surface12604722">
<path style=" stroke:none;fill-rule:nonzero;fill:rgb(100%,100%,100%);fill-opacity:1;" d="M 32 0 C 14.328125 0 0 14.328125 0 32 C 0 48.042969 11.820312 61.289062 27.214844 63.605469 L 27.214844 40.480469 L 19.296875 40.480469 L 19.296875 32.070312 L 27.214844 32.070312 L 27.214844 26.472656 C 27.214844 17.207031 31.730469 13.136719 39.433594 13.136719 C 43.121094 13.136719 45.070312 13.414062 45.996094 13.535156 L 45.996094 20.878906 L 40.742188 20.878906 C 37.472656 20.878906 36.332031 23.980469 36.332031 27.472656 L 36.332031 32.070312 L 45.910156 32.070312 L 44.613281 40.480469 L 36.332031 40.480469 L 36.332031 63.671875 C 51.949219 61.554688 64 48.199219 64 32 C 64 14.328125 49.671875 0 32 0 Z M 32 0 "/>
</g>
</svg>
