<?xml version="1.0" encoding="UTF-8"?>
<svg xmlns="http://www.w3.org/2000/svg" xmlns:xlink="http://www.w3.org/1999/xlink" width="64pt" height="64pt" viewBox="0 0 64 64" version="1.1">
<g id="surface12603398">
<path style=" stroke:none;fill-rule:nonzero;fill:rgb(100%,100%,100%);fill-opacity:1;" d="M 32 5.332031 C 17.296875 5.332031 5.332031 17.296875 5.332031 32 C 5.332031 46.703125 17.296875 58.667969 32 58.667969 C 46.703125 58.667969 58.667969 46.703125 58.667969 32 C 58.667969 17.296875 46.703125 5.332031 32 5.332031 Z M 32 9.332031 C 44.542969 9.332031 54.667969 19.457031 54.667969 32 C 54.667969 42.21875 47.941406 50.828125 38.667969 53.667969 L 38.667969 46.847656 C 38.667969 44.300781 37.199219 42.117188 35.078125 41.03125 C 39.261719 40.230469 42.707031 37.863281 44.328125 34.675781 C 45.949219 31.488281 45.546875 27.871094 43.25 24.960938 C 43.839844 23.140625 44.503906 19.949219 42.933594 17.433594 C 39.90625 17.433594 37.953125 19.507812 37.019531 20.800781 C 35.425781 20.277344 33.722656 20.003906 32 20 C 30.277344 20 28.570312 20.269531 26.972656 20.792969 C 26.039062 19.5 24.089844 17.433594 21.066406 17.433594 C 19.265625 20.320312 20.378906 23.417969 20.976562 24.683594 C 18.523438 27.582031 18.003906 31.261719 19.585938 34.523438 C 21.167969 37.789062 24.652344 40.222656 28.910156 41.039062 C 27.167969 41.9375 25.863281 43.566406 25.464844 45.542969 L 23.710938 45.542969 C 21.980469 45.542969 21.308594 44.839844 20.375 43.652344 C 19.453125 42.46875 18.460938 41.671875 17.269531 41.339844 C 16.625 41.273438 16.191406 41.761719 16.753906 42.195312 C 18.644531 43.484375 18.773438 45.589844 19.535156 46.972656 C 20.222656 48.214844 21.640625 49.332031 23.238281 49.332031 L 25.332031 49.332031 L 25.332031 53.667969 C 16.058594 50.828125 9.332031 42.21875 9.332031 32 C 9.332031 19.457031 19.457031 9.332031 32 9.332031 Z M 32 9.332031 "/>
</g>
</svg>
