<?xml version="1.0" encoding="UTF-8"?>
<svg xmlns="http://www.w3.org/2000/svg" xmlns:xlink="http://www.w3.org/1999/xlink" width="64pt" height="64pt" viewBox="0 0 64 64" version="1.1">
<g id="surface8061733">
<path style=" stroke:none;fill-rule:nonzero;fill:rgb(100%,100%,100%);fill-opacity:1;" d="M 22 6.667969 C 13.554688 6.667969 6.667969 13.554688 6.667969 22 L 6.667969 42 C 6.667969 50.445312 13.554688 57.332031 22 57.332031 L 42 57.332031 C 50.445312 57.332031 57.332031 50.445312 57.332031 42 L 57.332031 22 C 57.332031 13.554688 50.445312 6.667969 42 6.667969 Z M 22 10.667969 L 42 10.667969 C 48.28125 10.667969 53.332031 15.71875 53.332031 22 L 53.332031 42 C 53.332031 48.28125 48.28125 53.332031 42 53.332031 L 22 53.332031 C 15.71875 53.332031 10.667969 48.28125 10.667969 42 L 10.667969 22 C 10.667969 15.71875 15.71875 10.667969 22 10.667969 Z M 45.332031 16 C 43.859375 16 42.667969 17.191406 42.667969 18.667969 C 42.667969 20.140625 43.859375 21.332031 45.332031 21.332031 C 46.808594 21.332031 48 20.140625 48 18.667969 C 48 17.191406 46.808594 16 45.332031 16 Z M 32 18.667969 C 24.660156 18.667969 18.667969 24.660156 18.667969 32 C 18.667969 39.339844 24.660156 45.332031 32 45.332031 C 39.339844 45.332031 45.332031 39.339844 45.332031 32 C 45.332031 24.660156 39.339844 18.667969 32 18.667969 Z M 32 22.667969 C 37.175781 22.667969 41.332031 26.824219 41.332031 32 C 41.332031 37.175781 37.175781 41.332031 32 41.332031 C 26.824219 41.332031 22.667969 37.175781 22.667969 32 C 22.667969 26.824219 26.824219 22.667969 32 22.667969 Z M 32 22.667969 "/>
</g>
</svg>
