<?xml version="1.0" encoding="UTF-8"?>
<svg xmlns="http://www.w3.org/2000/svg" xmlns:xlink="http://www.w3.org/1999/xlink" width="64pt" height="64pt" viewBox="0 0 64 64" version="1.1">
<g id="surface12605428">
<path style=" stroke:none;fill-rule:nonzero;fill:rgb(100%,100%,100%);fill-opacity:1;" d="M 58.136719 0 L 5.863281 0 C 2.667969 0 0 2.667969 0 5.863281 L 0 58.136719 C 0 61.332031 2.667969 64 5.863281 64 L 58.136719 64 C 61.332031 64 64 61.332031 64 58.136719 L 64 5.863281 C 64 2.667969 61.332031 0 58.136719 0 Z M 18.667969 53.332031 L 8 53.332031 L 8 24 L 18.667969 24 Z M 13.332031 20.53125 C 10.136719 20.53125 8 18.394531 8 15.730469 C 8 12.800781 10.136719 10.667969 13.332031 10.667969 C 16.53125 10.667969 18.667969 12.800781 18.667969 15.46875 C 18.667969 18.394531 16.53125 20.53125 13.332031 20.53125 Z M 56 53.332031 L 45.332031 53.332031 L 45.332031 37.332031 C 45.332031 33.0625 42.394531 32 41.605469 32 C 40.800781 32 37.332031 32.53125 37.332031 37.332031 C 37.332031 37.863281 37.332031 53.332031 37.332031 53.332031 L 26.667969 53.332031 L 26.667969 24 L 37.332031 24 L 37.332031 28.269531 C 38.9375 25.863281 41.605469 24 46.667969 24 C 51.730469 24 56 28 56 37.332031 Z M 56 53.332031 "/>
</g>
</svg>
