<?xml version="1.0" encoding="UTF-8"?>
<svg xmlns="http://www.w3.org/2000/svg" xmlns:xlink="http://www.w3.org/1999/xlink" width="64pt" height="64pt" viewBox="0 0 64 64" version="1.1">
<g id="surface12602313">
<path style=" stroke:none;fill-rule:nonzero;fill:rgb(100%,100%,100%);fill-opacity:1;" d="M 64 11.46875 C 61.605469 12.53125 59.199219 13.332031 56.53125 13.605469 C 59.199219 12 61.332031 9.332031 62.394531 6.394531 C 59.730469 8 57.0625 9.0625 54.136719 9.605469 C 51.46875 6.9375 48 5.332031 44.269531 5.332031 C 37.0625 5.332031 31.199219 11.199219 31.199219 18.394531 C 31.199219 19.46875 31.199219 20.53125 31.46875 21.332031 C 20.53125 20.800781 10.9375 15.730469 4.53125 7.730469 C 3.199219 9.605469 2.667969 12 2.667969 14.394531 C 2.667969 18.9375 5.0625 22.9375 8.53125 25.332031 C 6.394531 25.0625 4.269531 24.53125 2.667969 23.730469 C 2.667969 23.730469 2.667969 23.730469 2.667969 24 C 2.667969 30.394531 7.199219 35.730469 13.0625 36.800781 C 12 37.0625 10.9375 37.332031 9.605469 37.332031 C 8.800781 37.332031 8 37.332031 7.199219 37.0625 C 8.800781 42.394531 13.605469 46.136719 19.46875 46.136719 C 14.9375 49.605469 9.332031 51.730469 3.199219 51.730469 C 2.136719 51.730469 1.0625 51.730469 0 51.46875 C 5.863281 55.199219 12.800781 57.332031 20 57.332031 C 44.269531 57.332031 57.332031 37.332031 57.332031 20 C 57.332031 19.46875 57.332031 18.9375 57.332031 18.394531 C 60 16.53125 62.136719 14.136719 64 11.46875 "/>
</g>
</svg>
